<svg id="图层_1" data-name="图层 1" xmlns="http://www.w3.org/2000/svg" viewBox="0 0 168.54 168.53"><defs><style>.cls-1{fill:#fff;}</style></defs><title>搜索</title><path class="cls-1" d="M117.93,38.19V49.43c15.16,0,27.5,12.59,27.5,28.07h11.23C156.66,55.83,139.29,38.19,117.93,38.19Z" transform="translate(-15.73 -15.73)"/><path class="cls-1" d="M20.63,155.05a17.35,17.35,0,0,0,0,24.16,16.74,16.74,0,0,0,12,5.06h0a16.74,16.74,0,0,0,12-5.06l43-43.83a62.29,62.29,0,0,0,33,9.51c35.05,0,63.57-29,63.57-64.57S155.75,15.73,120.7,15.73s-63.58,29-63.58,64.59a64.89,64.89,0,0,0,7.36,30.06L20.63,155.05ZM120.7,133.66c-28.87,0-52.35-23.93-52.35-53.34S91.83,27,120.7,27,173,50.9,173,80.32,149.55,133.66,120.7,133.66Zm-92,29.26,42.05-42.84a64.2,64.2,0,0,0,7.89,8.5l-42,42.76a5.56,5.56,0,0,1-4,1.69h0a5.54,5.54,0,0,1-4-1.69A6,6,0,0,1,28.66,162.92Z" transform="translate(-15.73 -15.73)"/></svg>